<svg width="110" height="30" fill="none" xmlns="http://www.w3.org/2000/svg"><path d="M18.18 13.894c-.029-3.223 2.63-4.79 2.752-4.864-1.506-2.203-3.84-2.504-4.66-2.528-1.96-.207-3.862 1.177-4.861 1.177-1.019 0-2.557-1.157-4.214-1.123-2.133.033-4.128 1.272-5.223 3.196-2.258 3.923-.574 9.688 1.59 12.86 1.082 1.552 2.347 3.286 4.003 3.225 1.62-.067 2.224-1.036 4.179-1.036 1.936 0 2.504 1.036 4.193.997 1.738-.028 2.832-1.56 3.877-3.127 1.25-1.78 1.753-3.533 1.773-3.623-.041-.014-3.376-1.29-3.409-5.154zM14.99 4.416c.872-1.093 1.468-2.58 1.303-4.089-1.261.056-2.838.875-3.746 1.944-.803.942-1.52 2.486-1.336 3.938 1.417.106 2.87-.717 3.78-1.793z" fill="#fff"/><path fill-rule="evenodd" clip-rule="evenodd" d="M39.355 25.614h2.264l-4.29-13.308H34.69l-4.27 13.308h2.204l1.181-3.91h4.31l1.24 3.91zm-2.734-9.024l1.12 3.475h-3.56l1.101-3.475c.29-1.105.5-1.941.63-2.507h.04c.328 1.316.55 2.152.669 2.507zM51.28 24.567c.88-.947 1.32-2.237 1.32-3.87 0-1.46-.378-2.638-1.133-3.534-.753-.895-1.695-1.342-2.823-1.342-1.444 0-2.52.572-3.228 1.718h-.04l-.118-1.521h-1.869a65.86 65.86 0 01.079 3.159v10.347h2.125v-5.055h.04c.55.908 1.456 1.362 2.715 1.362 1.168 0 2.145-.421 2.933-1.264zm-1.475-6.101c.42.606.63 1.376.63 2.31 0 1.014-.224 1.83-.67 2.449-.446.618-1.069.928-1.869.928-.682 0-1.236-.24-1.662-.721-.427-.481-.64-1.07-.64-1.768v-1.6c0-.17.033-.386.098-.65.131-.566.41-1.023.837-1.373a2.205 2.205 0 011.426-.523c.773 0 1.39.316 1.85.948zM62.28 24.567c.88-.947 1.32-2.237 1.32-3.87 0-1.46-.378-2.638-1.13-3.534-.756-.895-1.698-1.342-2.825-1.342-1.445 0-2.52.572-3.228 1.718h-.04l-.118-1.521H54.39c.052 1.08.079 2.133.079 3.159v10.347h2.125v-5.055h.04c.55.908 1.455 1.362 2.715 1.362 1.167 0 2.145-.421 2.93-1.264zm-1.476-6.101c.42.606.63 1.376.63 2.31 0 1.014-.222 1.83-.669 2.449-.446.618-1.068.928-1.869.928-.683 0-1.238-.241-1.664-.721-.425-.481-.638-1.07-.638-1.768v-1.6c0-.17.034-.386.099-.65.13-.566.408-1.023.835-1.373a2.208 2.208 0 011.427-.523c.775 0 1.39.316 1.849.948z" fill="#fff"/><path d="M75.899 21.882c0 1.132-.392 2.053-1.178 2.764-.865.777-2.068 1.165-3.613 1.165-1.428 0-2.572-.276-3.438-.83l.492-1.776a5.81 5.81 0 003.072.85c.8 0 1.423-.182 1.87-.544.446-.362.669-.848.669-1.454 0-.54-.184-.995-.551-1.364-.366-.37-.977-.712-1.83-1.03-2.323-.868-3.483-2.141-3.483-3.815 0-1.094.407-1.991 1.221-2.69.812-.698 1.894-1.047 3.247-1.047 1.207 0 2.21.21 3.01.632l-.531 1.738c-.747-.408-1.593-.612-2.538-.612-.748 0-1.332.185-1.75.553-.355.329-.532.73-.532 1.205 0 .526.203.96.61 1.303.353.316.996.658 1.929 1.027 1.14.46 1.979 1 2.518 1.618.537.616.806 1.387.806 2.307zM82.924 17.618h-2.342v4.659c0 1.185.413 1.777 1.24 1.777.38 0 .694-.033.944-.1l.058 1.62c-.418.157-.97.236-1.652.236-.84 0-1.495-.257-1.968-.77-.472-.514-.71-1.376-.71-2.587v-4.837H77.1v-1.6h1.395v-1.757l2.087-.632v2.389h2.342v1.602z" fill="#fff"/><path fill-rule="evenodd" clip-rule="evenodd" d="M92.232 24.37c.839-.947 1.26-2.158 1.26-3.633 0-1.435-.407-2.606-1.222-3.513-.852-.935-1.982-1.402-3.385-1.402-1.456 0-2.614.474-3.472 1.422-.86.947-1.29 2.165-1.29 3.652 0 1.42.417 2.6 1.25 3.534.834.934 1.951 1.4 3.355 1.4 1.456 0 2.624-.485 3.504-1.46zm-1.515-5.841c.382.633.57 1.392.57 2.277 0 .884-.197 1.65-.59 2.296-.459.778-1.095 1.168-1.907 1.168-.828 0-1.47-.382-1.93-1.148-.381-.632-.57-1.391-.57-2.276 0-.912.189-1.683.57-2.317.446-.765 1.095-1.148 1.95-1.148.825 0 1.461.382 1.907 1.148z" fill="#fff"/><path d="M100.399 17.893a3.687 3.687 0 00-.67-.06c-.748 0-1.326.284-1.732.85-.354.5-.532 1.133-.532 1.896v5.035h-2.124l.02-6.574c0-1.106-.026-2.113-.08-3.021h1.852l.077 1.836h.06c.223-.631.577-1.14 1.062-1.52a2.564 2.564 0 011.535-.514c.197 0 .374.014.532.039v2.033z" fill="#fff"/><path fill-rule="evenodd" clip-rule="evenodd" d="M109.824 21.329a5 5 0 00.078-.967c0-1.197-.282-2.205-.843-3.02-.709-1.026-1.753-1.54-3.131-1.54-1.403 0-2.518.514-3.344 1.54-.788.96-1.182 2.166-1.182 3.613 0 1.474.424 2.649 1.269 3.524.847.875 2.011 1.313 3.494 1.313 1.233 0 2.302-.197 3.207-.593l-.333-1.48c-.775.303-1.636.454-2.58.454-.853 0-1.548-.224-2.085-.671-.592-.5-.9-1.225-.925-2.173h6.375zm-2.361-3.16c.288.462.427 1.008.413 1.64v-.001h-4.427c.065-.644.275-1.197.629-1.658.432-.58.997-.87 1.692-.87.76 0 1.325.297 1.693.89zM35.985 6.777c.703-.595 1.054-1.481 1.054-2.658 0-1.048-.325-1.853-.975-2.416-.58-.498-1.44-.747-2.582-.747-.645 0-1.243.046-1.799.136v6.431c.426.052.934.078 1.528.078 1.198 0 2.123-.275 2.774-.824zm-.65-4.385c.402.408.603.993.603 1.756 0 .854-.22 1.504-.654 1.95-.434.446-1.051.669-1.85.669-.342 0-.578-.009-.706-.029V1.849c.232-.046.512-.068.841-.068.774 0 1.362.204 1.765.611zM42.26 6.932c.413-.466.619-1.06.619-1.785 0-.704-.2-1.28-.6-1.726-.419-.459-.973-.688-1.663-.688-.715 0-1.283.233-1.706.698-.422.465-.633 1.064-.633 1.794 0 .698.204 1.277.613 1.736.41.46.959.689 1.649.689.715 0 1.288-.239 1.72-.718zm-.745-2.87c.187.311.28.684.28 1.119 0 .435-.096.811-.29 1.128-.225.383-.538.574-.936.574-.407 0-.722-.188-.948-.564-.187-.311-.28-.684-.28-1.119 0-.448.092-.827.28-1.138.219-.376.538-.564.958-.564.405 0 .717.188.936.564z" fill="#fff"/><path d="M50.709 2.829l-1.47 4.714h-.957l-.61-2.047a15.337 15.337 0 01-.377-1.523h-.019a11.19 11.19 0 01-.378 1.523l-.646 2.047h-.968L43.9 2.829h1.074l.531 2.241c.129.53.234 1.035.32 1.513h.018c.078-.394.206-.896.388-1.503l.666-2.25h.852l.639 2.202c.154.537.28 1.054.376 1.552h.03c.07-.485.177-1.002.318-1.552l.57-2.202h1.026v-.001zM56.124 7.543h-1.045v-2.7c0-.832-.315-1.248-.947-1.248-.31 0-.56.114-.754.343a1.22 1.22 0 00-.29.808v2.796h-1.045V4.176c0-.414-.013-.863-.038-1.349h.918l.05.737H53c.122-.229.303-.418.541-.569.283-.176.6-.265.947-.265.439 0 .803.142 1.093.427.361.349.542.87.542 1.562v2.824zM59.004 7.543H57.96V.666h1.044v6.877z" fill="#fff"/><path fill-rule="evenodd" clip-rule="evenodd" d="M64.534 6.932c.413-.466.62-1.06.62-1.785 0-.704-.2-1.28-.6-1.726-.42-.459-.973-.688-1.664-.688-.715 0-1.283.233-1.705.698-.423.465-.633 1.064-.633 1.794 0 .698.204 1.277.613 1.736.408.46.958.689 1.648.689.715 0 1.289-.239 1.721-.718zm-.745-2.87c.186.311.28.684.28 1.119 0 .435-.096.811-.29 1.128-.225.383-.537.574-.936.574-.407 0-.721-.188-.948-.564-.186-.311-.28-.684-.28-1.119 0-.448.093-.827.28-1.138.219-.376.537-.564.958-.564.405 0 .718.188.936.564zM69.27 7.543h.939a7.38 7.38 0 01-.068-1.124V4.683c0-1.3-.616-1.95-1.844-1.95-.636 0-1.175.136-1.612.407l.213.688a2.18 2.18 0 011.225-.349c.65 0 .975.31.975.931v.088c-.87-.007-1.546.142-2.026.446-.481.304-.72.743-.72 1.319 0 .381.122.702.367.96.27.284.63.427 1.073.427.594 0 1.051-.217 1.372-.65h.03l.077.543zm-.146-2.347v.727a.893.893 0 01-.379.742c-.195.145-.41.218-.638.218a.73.73 0 01-.51-.184c-.135-.123-.201-.307-.201-.553 0-.653.576-.97 1.728-.95zM75.217 7.543h.927a19.936 19.936 0 01-.037-1.27V.666H75.06v2.706h-.02c-.25-.427-.692-.64-1.323-.64-.574 0-1.057.22-1.45.66-.407.472-.61 1.09-.61 1.853 0 .711.187 1.29.56 1.736.375.446.846.669 1.412.669.709 0 1.213-.288 1.51-.864h.028l.049.757zm-.156-2.774v.786c0 .336-.098.624-.3.863a1.005 1.005 0 01-.825.388c-.382 0-.687-.155-.913-.465-.214-.291-.32-.669-.32-1.135 0-.485.112-.882.334-1.193a1.07 1.07 0 01.92-.466c.27 0 .503.086.698.257a1.194 1.194 0 01.406.965zM84.458 6.932c.413-.466.619-1.06.619-1.785 0-.704-.2-1.28-.6-1.726-.418-.459-.973-.688-1.662-.688-.716 0-1.284.233-1.707.698-.422.465-.633 1.064-.633 1.794 0 .698.205 1.277.613 1.736.41.46.96.689 1.649.689.716 0 1.288-.239 1.72-.718zm-.744-2.87c.187.311.28.684.28 1.119 0 .435-.097.811-.29 1.128-.225.383-.539.574-.937.574-.407 0-.722-.188-.948-.564-.187-.311-.28-.684-.28-1.119 0-.448.092-.827.28-1.138.22-.376.539-.564.958-.564.406 0 .717.188.937.564z" fill="#fff"/><path d="M90.693 7.543H89.65v-2.7c0-.832-.315-1.248-.948-1.248-.31 0-.56.114-.754.343-.193.229-.29.499-.29.808v2.796h-1.045V4.176c0-.414-.012-.863-.037-1.349h.917l.049.737h.029c.122-.229.304-.418.54-.569.285-.176.6-.265.949-.265.437 0 .802.142 1.092.427.362.349.541.87.541 1.562v2.824zM97.723 3.614h-1.15v2.29c0 .582.204.873.609.873.187 0 .342-.016.465-.049l.027.795c-.207.078-.478.117-.812.117-.412 0-.733-.126-.965-.378-.234-.252-.35-.676-.35-1.271V3.614h-.686v-.785h.687v-.864l1.023-.31v1.173h1.15v.786h.002zM103.252 7.543h-1.045v-2.68c0-.845-.315-1.268-.946-1.268-.485 0-.816.245-.997.735a1.317 1.317 0 00-.049.377v2.835h-1.043V.666h1.043v2.841h.02c.329-.517.801-.775 1.411-.775.433 0 .791.142 1.075.427.354.355.531.883.531 1.581v2.803z" fill="#fff"/><path fill-rule="evenodd" clip-rule="evenodd" d="M108.917 5.438a2.53 2.53 0 00.039-.475c0-.588-.138-1.083-.419-1.483-.346-.504-.86-.756-1.535-.756-.691 0-1.238.252-1.643.756-.388.472-.58 1.064-.58 1.775 0 .724.206 1.301.623 1.731.415.43.988.645 1.715.645.607 0 1.131-.097 1.577-.291l-.163-.728a3.454 3.454 0 01-1.267.223c-.419 0-.761-.11-1.026-.33-.29-.246-.439-.601-.453-1.067h3.132zm-1.16-1.551c.142.226.21.494.202.805h-2.174c.034-.317.136-.588.31-.815a.99.99 0 01.831-.427c.374 0 .65.146.831.437z" fill="#fff"/></svg>