<svg width="111" height="27" fill="none" xmlns="http://www.w3.org/2000/svg"><path d="M36.125 3.69c0 .76-.19 1.425-.666 1.9-.572.57-1.238.855-2.095.855-.856 0-1.523-.285-2.094-.855-.571-.57-.857-1.235-.857-2.09 0-.855.286-1.52.857-2.09.571-.57 1.238-.855 2.094-.855.381 0 .762.095 1.143.285.38.19.666.38.857.665l-.476.475c-.381-.475-.857-.665-1.524-.665-.57 0-1.142.19-1.523.665-.476.38-.666.95-.666 1.615s.19 1.235.666 1.615c.476.38.952.665 1.523.665.667 0 1.143-.19 1.619-.665.285-.285.476-.665.476-1.14h-2.095v-.76h2.761v.38zm4.38-2.375h-2.571V3.12h2.38v.665h-2.38V5.59h2.57v.76h-3.332V.65h3.332v.665zm3.141 5.035h-.762V1.315h-1.618V.65h3.998v.665h-1.618V6.35zm4.38 0V.65h.76v5.7h-.76zm3.998 0h-.762V1.315h-1.618V.65h3.903v.665h-1.618V6.35h.095zm9.044-.76c-.571.57-1.238.855-2.095.855-.856 0-1.523-.285-2.094-.855-.571-.57-.857-1.235-.857-2.09 0-.855.286-1.52.857-2.09.571-.57 1.238-.855 2.094-.855.857 0 1.524.285 2.095.855.571.57.857 1.235.857 2.09 0 .855-.286 1.52-.857 2.09zm-3.618-.475c.38.38.952.665 1.523.665.572 0 1.143-.19 1.524-.665.38-.38.666-.95.666-1.615s-.19-1.235-.666-1.615c-.381-.38-.953-.665-1.524-.665-.57 0-1.142.19-1.523.665-.38.38-.666.95-.666 1.615s.19 1.235.666 1.615zm5.522 1.235V.65h.857l2.76 4.465V.65h.762v5.7h-.762l-2.95-4.655V6.35h-.667zM55.832 14.71c-2.285 0-4.094 1.71-4.094 4.085a4.059 4.059 0 004.094 4.085c2.285 0 4.093-1.71 4.093-4.085 0-2.47-1.808-4.085-4.093-4.085zm0 6.46c-1.238 0-2.285-1.045-2.285-2.47 0-1.425 1.047-2.47 2.285-2.47 1.237 0 2.285.95 2.285 2.47 0 1.425-1.048 2.47-2.285 2.47zm-8.854-6.46c-2.285 0-4.093 1.71-4.093 4.085a4.059 4.059 0 004.093 4.085c2.285 0 4.094-1.71 4.094-4.085 0-2.47-1.81-4.085-4.094-4.085zm0 6.46c-1.238 0-2.285-1.045-2.285-2.47 0-1.425 1.047-2.47 2.285-2.47 1.238 0 2.285.95 2.285 2.47 0 1.425-1.047 2.47-2.285 2.47zm-10.567-5.225v1.71h4.093c-.095.95-.475 1.71-.952 2.185-.57.57-1.523 1.235-3.141 1.235-2.57 0-4.475-1.995-4.475-4.56 0-2.565 2-4.56 4.475-4.56 1.333 0 2.38.57 3.141 1.235l1.238-1.235c-1.047-.95-2.38-1.71-4.284-1.71-3.427 0-6.378 2.85-6.378 6.27 0 3.42 2.95 6.27 6.378 6.27 1.904 0 3.237-.57 4.38-1.805 1.142-1.14 1.522-2.755 1.522-3.99 0-.38 0-.76-.095-1.045h-5.902zm43.221 1.33c-.38-.95-1.333-2.565-3.427-2.565-2.095 0-3.808 1.615-3.808 4.085 0 2.28 1.713 4.085 3.998 4.085 1.809 0 2.951-1.14 3.332-1.805l-1.333-.95c-.476.665-1.047 1.14-1.999 1.14-.952 0-1.523-.38-1.999-1.235l5.426-2.28-.19-.475zm-5.522 1.33c0-1.52 1.238-2.375 2.095-2.375.666 0 1.333.38 1.523.855l-3.618 1.52zM69.636 22.5h1.809V10.625h-1.81V22.5zm-2.856-6.935c-.476-.475-1.238-.95-2.19-.95-1.999 0-3.903 1.805-3.903 4.085 0 2.28 1.809 3.99 3.903 3.99.952 0 1.714-.475 2.095-.95h.095v.57c0 1.52-.857 2.375-2.19 2.375-1.047 0-1.809-.76-1.999-1.425l-1.523.665c.476 1.045 1.618 2.375 3.618 2.375 2.094 0 3.807-1.235 3.807-4.18V14.9H66.78v.665zm-2.094 5.605c-1.238 0-2.285-1.045-2.285-2.47 0-1.425 1.047-2.47 2.285-2.47 1.237 0 2.19 1.045 2.19 2.47 0 1.425-.953 2.47-2.19 2.47zm23.228-10.545H83.63V22.5h1.81v-4.465h2.475c1.999 0 3.903-1.425 3.903-3.705 0-2.28-1.904-3.705-3.903-3.705zm.096 5.7h-2.57V12.24h2.57c1.332 0 2.094 1.14 2.094 1.995-.095 1.045-.857 2.09-2.094 2.09zm10.948-1.71c-1.333 0-2.666.57-3.142 1.805l1.619.665c.38-.665.952-.855 1.618-.855.952 0 1.809.57 1.904 1.52v.095c-.286-.19-1.047-.475-1.809-.475-1.713 0-3.427.95-3.427 2.66 0 1.615 1.428 2.66 2.951 2.66 1.238 0 1.809-.57 2.285-1.14h.095v.95h1.714v-4.56c-.191-2.09-1.809-3.325-3.808-3.325zm-.19 6.555c-.572 0-1.429-.285-1.429-1.045 0-.95 1.048-1.235 1.904-1.235.762 0 1.143.19 1.619.38-.191 1.14-1.143 1.9-2.095 1.9zm9.995-6.27l-1.999 5.13h-.095l-2.094-5.13h-1.904l3.141 7.22-1.809 3.99h1.809l4.855-11.21h-1.904zM92.77 22.5h1.809V10.625h-1.81V22.5z" fill="#fff"/><path d="M.9 1.125c-.285.285-.38.76-.38 1.33V23.45c0 .57.19 1.045.476 1.33l.095.095 11.805-11.78v-.19L.901 1.125z" fill="url(#paint0_linear)"/><path d="M16.704 17.085l-3.903-3.895v-.285l3.903-3.895.095.095 4.665 2.66c1.333.76 1.333 1.995 0 2.755l-4.76 2.565z" fill="url(#paint1_linear)"/><path d="M16.8 16.99L12.8 13 .901 24.875c.476.475 1.142.475 2 .095l13.898-7.98z" fill="url(#paint2_linear)"/><path d="M16.8 9.01L2.9 1.125C2.043.65 1.377.745.9 1.22L12.802 13l3.998-3.99z" fill="url(#paint3_linear)"/><path opacity=".2" d="M16.704 16.895L2.9 24.685c-.762.475-1.428.38-1.904 0l-.095.095.095.095c.476.38 1.142.475 1.904 0l13.804-7.98z" fill="#000"/><path opacity=".2" d="M.9 24.685c-.285-.285-.38-.76-.38-1.33v.095c0 .57.19 1.045.476 1.33v-.095H.901zm20.564-10.45l-4.76 2.66.095.095 4.665-2.66c.667-.38.952-.855.952-1.33 0 .475-.38.855-.952 1.235z" fill="#000"/><path opacity=".2" d="M2.9 1.22l18.564 10.545c.571.38.952.76.952 1.235 0-.475-.285-.95-.952-1.33L2.9 1.125C1.567.365.52.935.52 2.455v.095C.52 1.125 1.567.46 2.9 1.22z" fill="#fff"/><defs><linearGradient id="paint0_linear" x1="11.754" y1="2.274" x2="-4.19" y2="18.251" gradientUnits="userSpaceOnUse"><stop stop-color="#00A0FF"/><stop offset=".007" stop-color="#00A1FF"/><stop offset=".26" stop-color="#00BEFF"/><stop offset=".512" stop-color="#00D2FF"/><stop offset=".76" stop-color="#00DFFF"/><stop offset="1" stop-color="#00E3FF"/></linearGradient><linearGradient id="paint1_linear" x1="23.21" y1="13.001" x2=".175" y2="13.001" gradientUnits="userSpaceOnUse"><stop stop-color="#FFE000"/><stop offset=".409" stop-color="#FFBD00"/><stop offset=".775" stop-color="orange"/><stop offset="1" stop-color="#FF9C00"/></linearGradient><linearGradient id="paint2_linear" x1="14.636" y1="15.181" x2="-6.985" y2="36.847" gradientUnits="userSpaceOnUse"><stop stop-color="#FF3A44"/><stop offset="1" stop-color="#C31162"/></linearGradient><linearGradient id="paint3_linear" x1="-2.053" y1="-5.833" x2="7.602" y2="3.842" gradientUnits="userSpaceOnUse"><stop stop-color="#32A071"/><stop offset=".069" stop-color="#2DA771"/><stop offset=".476" stop-color="#15CF74"/><stop offset=".801" stop-color="#06E775"/><stop offset="1" stop-color="#00F076"/></linearGradient></defs></svg>